<?xml version="1.0" encoding="utf-8"?>
<svg version="1.0" width="1372.000000pt" height="918.000000pt" viewBox="0 0 1372.000000 918.000000" preserveAspectRatio="xMidYMid meet" xmlns="http://www.w3.org/2000/svg">
  <defs>
    <radialGradient gradientUnits="userSpaceOnUse" cx="6703.885" cy="3604.192" r="1039.075" id="gradient-1" gradientTransform="matrix(5.720704, 0.2311, -0.110191, 2.727649, -31155.982733, -8057.936316)">
      <stop offset="0" style=""/>
      <stop offset="1" style="stop-color: rgb(255, 225, 0);"/>
    </radialGradient>
  </defs>
  <g transform="translate(0.000000,918.000000) scale(0.100000,-0.100000)" fill="#000000" stroke="none">
    <path d="M4518 8084 l-3 -646 -40 -24 c-22 -13 -47 -27 -55 -31 -8 -3 -39 -21 -68 -40 -29 -18 -54 -33 -57 -33 -2 0 -26 -13 -53 -29 -26 -15 -68 -40 -93 -54 -41 -23 -125 -72 -574 -332 -93 -54 -187 -107 -207 -118 l-38 -21 0 -398 c0 -219 3 -398 6 -398 3 0 54 28 113 61 58 34 120 69 136 79 109 63 242 140 314 182 46 27 86 46 90 43 3 -4 7 -653 8 -1443 l2 -1437 38 1 c21 1 74 7 118 13 44 7 119 15 168 18 l87 5 0 1538 c0 846 3 1545 6 1554 3 9 10 16 14 16 4 0 49 25 99 55 51 30 94 55 96 55 2 0 56 32 121 70 64 39 119 70 121 70 2 0 29 16 59 35 30 19 56 35 58 35 3 0 37 19 78 43 40 24 95 56 121 71 72 39 360 206 450 260 43 25 80 46 82 46 1 0 76 43 165 95 89 52 163 95 165 95 1 0 44 25 94 55 51 30 93 55 95 55 2 0 118 67 257 148 343 200 356 207 371 195 7 -6 33 -22 58 -35 25 -14 101 -58 170 -98 69 -40 141 -81 160 -92 19 -11 121 -70 225 -131 184 -107 212 -123 293 -168 20 -12 66 -38 102 -59 36 -21 81 -47 100 -58 82 -46 434 -250 533 -308 60 -35 111 -64 114 -64 3 0 17 -8 31 -19 15 -10 50 -31 77 -46 80 -44 446 -255 498 -288 l47 -29 0 -1797 0 -1796 58 -34 c57 -34 57 -34 125 -22 37 6 103 11 147 11 44 0 80 3 80 8 0 4 0 764 1 1690 0 1379 2 1684 13 1688 7 3 35 -8 62 -24 113 -68 345 -202 350 -202 3 0 18 -8 32 -19 15 -10 47 -30 72 -43 25 -14 66 -38 93 -53 l47 -27 0 400 0 400 -72 43 c-40 24 -88 52 -107 62 -19 10 -77 44 -130 74 -53 31 -116 67 -141 81 -25 14 -57 33 -72 43 -14 11 -28 19 -31 19 -3 0 -41 21 -84 46 -78 47 -377 219 -443 257 -19 10 -91 52 -160 92 -190 110 -314 182 -430 248 -159 91 -160 91 -240 139 -41 25 -95 56 -120 70 -69 39 -366 210 -453 262 -43 25 -81 46 -83 46 -3 0 -30 16 -60 35 -30 19 -56 35 -59 35 -2 0 -65 36 -141 80 -75 44 -138 80 -140 80 -3 0 -23 12 -47 27 -39 25 -97 59 -206 121 -25 14 -67 38 -93 53 -109 65 -233 75 -333 28 -27 -13 -191 -106 -364 -206 -173 -101 -315 -183 -317 -183 -1 0 -35 -19 -76 -43 -40 -24 -93 -55 -118 -69 -25 -14 -74 -42 -110 -63 -36 -21 -79 -46 -97 -56 -17 -10 -50 -29 -72 -43 -22 -15 -43 -26 -45 -26 -2 0 -49 -27 -104 -59 -55 -33 -103 -57 -106 -53 -3 3 -6 191 -6 419 l0 413 -385 0 -385 0 -2 -646z" style="fill: rgb(255, 229, 43);"/>
    <path d="M6669 6924 c-51 -27 -57 -49 -61 -217 -3 -139 -5 -159 -24 -184 -24 -32 -66 -55 -144 -78 -151 -44 -323 -147 -421 -252 -62 -66 -105 -132 -143 -216 -50 -110 -61 -173 -61 -342 1 -162 10 -205 75 -335 97 -193 357 -376 705 -494 44 -15 89 -31 100 -36 11 -4 43 -16 70 -25 102 -36 238 -111 295 -162 74 -68 100 -121 100 -211 0 -156 -98 -246 -318 -291 -99 -21 -327 -7 -477 28 -127 30 -150 37 -210 61 -151 61 -156 62 -200 45 -55 -21 -66 -44 -115 -239 -43 -168 -46 -201 -29 -239 29 -64 304 -152 619 -198 76 -11 88 -16 118 -46 l32 -34 0 -147 c0 -128 3 -151 19 -176 33 -50 53 -55 218 -56 148 0 152 1 182 26 43 36 51 77 51 256 l0 156 30 30 c16 17 45 34 62 37 96 21 254 84 333 134 214 136 346 322 394 559 14 68 14 251 0 328 -55 311 -281 534 -699 689 -41 15 -84 31 -95 35 -11 5 -46 18 -79 30 -196 70 -375 172 -428 243 -102 137 -22 317 166 373 49 15 94 19 226 19 185 -1 288 -17 430 -67 139 -50 213 -48 242 6 12 23 39 117 88 306 35 134 -22 175 -350 249 -25 5 -89 15 -143 22 -151 18 -164 38 -167 247 -1 111 -9 136 -52 162 -29 18 -50 20 -173 19 -99 -1 -148 -5 -166 -15z" style="paint-order: fill; fill: url(#gradient-1);"/>
    <path d="M4330 3119 c-247 -21 -505 -86 -815 -204 -120 -46 -386 -174 -520 -250 -44 -25 -90 -51 -102 -57 l-23 -11 0 -894 c0 -811 1 -893 16 -893 18 0 98 22 189 51 33 11 74 23 90 28 26 8 247 76 410 127 167 52 200 58 325 58 151 0 212 -18 409 -121 208 -109 442 -226 511 -257 36 -16 88 -39 115 -51 28 -13 75 -33 105 -45 30 -12 64 -26 75 -30 19 -8 205 -70 270 -89 121 -37 358 -82 685 -130 36 -5 112 -17 170 -26 58 -9 134 -21 170 -27 78 -11 133 -20 304 -47 199 -32 349 -24 506 28 30 10 82 26 115 36 33 9 85 25 115 35 30 9 96 30 145 45 50 15 99 31 110 35 11 5 29 10 40 13 48 12 542 176 590 196 11 5 103 41 205 81 220 86 225 88 455 201 215 105 317 160 560 302 128 75 178 105 490 297 566 347 647 406 708 511 32 55 57 132 57 177 0 57 -29 137 -65 180 -71 82 -168 122 -297 122 -109 0 -162 -14 -363 -95 -88 -36 -166 -65 -173 -65 -7 0 -12 15 -12 38 0 116 -117 192 -294 192 -109 0 -103 2 -368 -108 -4 -2 -8 8 -8 22 0 78 -77 161 -177 191 -90 28 -255 16 -383 -27 -33 -12 -394 -192 -415 -208 -5 -4 -104 -56 -220 -115 -115 -59 -216 -113 -223 -120 -10 -9 -4 -14 30 -25 68 -21 198 -85 252 -124 112 -80 194 -181 234 -286 7 -19 16 -79 19 -133 12 -201 -69 -387 -216 -498 -135 -103 -161 -106 -936 -115 -526 -6 -668 -2 -820 26 -131 24 -223 42 -250 50 -87 27 -253 82 -270 89 -11 5 -66 30 -123 55 -257 112 -420 285 -572 604 -49 102 -51 121 -12 94 42 -29 266 -163 367 -219 284 -158 587 -284 780 -323 123 -25 165 -32 235 -42 122 -15 752 -21 1060 -8 274 11 286 12 327 36 84 49 115 129 95 246 -41 240 -185 304 -937 419 -265 40 -367 65 -501 124 -62 28 -153 85 -197 124 -147 132 -453 372 -547 428 -286 172 -498 268 -705 321 -100 26 -123 31 -175 41 -155 30 -413 38 -620 20z"/>
  </g>
</svg>